#!OML:ASF F:\VICON\USERDATA\INSTALL\rory3\rory3.ASF
:FULLY-SPECIFIED
:DEGREES
458
root -4.94877 17.8988 9.57488 -181.645 1.40097 178.496
lowerback 12.9119 1.31195 0.887125
upperback 0.856354 2.03885 0.543614
thorax -6.33071 1.03602 -0.303504
lowerneck -19.7536 -1.67802 -11.812
upperneck 34.8248 -2.89746 5.84019
head 15.9326 -2.84867 3.79352
rclavicle -2.05742e-014 -6.75868e-015
rhumerus -32.8251 -16.3832 -73.3622
rradius 34.5092
rwrist 6.09299
rhand -15.9535 11.3901
rfingers 7.12502
rthumb 10.245 -18.3404
lclavicle -2.05742e-014 -6.75868e-015
lhumerus -34.0449 9.96891 82.1845
lradius 32.7385
lwrist -5.33403
lhand -21.4082 23.1512
lfingers 7.12502
lthumb 4.9802 53.0727
rfemur -5.10425 0.892562 14.662
rtibia 27.0314
rfoot -16.9742 -2.24631
rtoes -3.28648
lfemur -7.44619 -6.42188 -7.45138
ltibia 27.4781
lfoot -9.83639 -1.66997
ltoes -2.59324
459
root -5.03204 17.9045 9.57397 -181.721 1.44872 178.372
lowerback 12.8928 1.30662 0.814038
upperback 0.935215 2.02015 0.479959
thorax -6.23663 1.03075 -0.324241
lowerneck -19.8948 -1.71266 -11.7733
upperneck 34.8635 -2.88175 5.68943
head 15.9817 -2.85521 3.72493
rclavicle 3.12092e-014 1.59028e-015
rhumerus -32.7162 -16.1023 -73.5647
rradius 34.4292
rwrist 6.09707
rhand -15.9463 11.2587
rfingers 7.12502
rthumb 10.252 -18.4715
lclavicle 3.12092e-014 1.59028e-015
lhumerus -33.9096 10.0851 82.1124
lradius 32.7198
lwrist -5.40822
lhand -21.4713 23.4662
lfingers 7.12502
lthumb 4.91932 53.3891
rfemur -4.82294 0.916904 14.2355
rtibia 26.5915
rfoot -16.7037 -2.30077
rtoes -3.74904
lfemur -7.11426 -6.78511 -7.00547
ltibia 26.9697
lfoot -8.24084 -0.711585
ltoes -0.548282
460
root -5.11434 17.9109 9.57389 -181.78 1.4857 178.187
lowerback 12.9964 1.29284 0.585618
upperback 0.901505 1.96576 0.442898
thorax -6.33684 1.00831 -0.228086
lowerneck -19.8955 -1.68808 -11.8718
upperneck 34.8521 -2.83148 5.76029
head 15.9728 -2.8379 3.78275
rclavicle -3.18055e-015 1.03368e-014
rhumerus -32.7015 -15.8057 -73.668
rradius 34.2405
rwrist 6.29501
rhand -16.2171 11.6261
rfingers 7.12502
rthumb 9.99066 -18.1167
lclavicle -3.18055e-015 1.03368e-014
lhumerus -33.9236 10.2388 82.0343
lradius 32.6259
lwrist -5.46684
lhand -21.6229 23.6673
lfingers 7.12502
lthumb 4.77295 53.5936
rfemur -4.57441 0.987252 13.7385
rtibia 26.1662
rfoot -16.5005 -2.29936
rtoes -4.01988
lfemur -6.83628 -7.19061 -6.62397
ltibia 26.4169
lfoot -6.44326 0.159045
ltoes 1.91171
461
root -5.19749 17.9179 9.57285 -181.824 1.48137 178.123
lowerback 13.0451 1.27945 0.515568
upperback 0.880487 1.93492 0.409802
thorax -6.38752 0.993837 -0.219459
lowerneck -19.7671 -1.65773 -11.9063
upperneck 34.7416 -2.79677 5.81646
head 15.8843 -2.8147 3.81731
rclavicle 1.63003e-014 3.97569e-016
rhumerus -32.7336 -15.6173 -73.7468
rradius 34.1843
rwrist 6.46791
rhand -16.3041 11.5925
rfingers 7.12502
rthumb 9.90675 -18.1544
lclavicle 1.63003e-014 3.97569e-016
lhumerus -33.9376 10.2548 81.9584
lradius 32.5959
lwrist -5.58406
lhand -21.6319 23.7487
lfingers 7.12502
lthumb 4.76425 53.6752
rfemur -4.35449 1.04611 13.3692
rtibia 25.8155
rfoot -16.3883 -2.28487
rtoes -4.23171
lfemur -6.52215 -7.62508 -6.10183
ltibia 25.7641
lfoot -4.51876 0.81716
ltoes 3.76918
462
root -5.28396 17.9194 9.56823 -181.895 1.47048 178.129
lowerback 12.9942 1.28176 0.552182
upperback 0.911627 1.94196 0.37912
thorax -6.32373 0.996861 -0.271833
lowerneck -19.7685 -1.63549 -11.7688
upperneck 34.7847 -2.76749 5.66507
head 15.8973 -2.80943 3.73254
rclavicle -5.91384e-015 -3.18055e-015
rhumerus -32.7809 -15.6041 -73.7738
rradius 34.1594
rwrist 6.67387
rhand -16.1858 11.2027
rfingers 7.12502
rthumb 10.0209 -18.5387
lclavicle -5.91384e-015 -3.18055e-015
lhumerus -33.8954 10.1366 81.9435
lradius 32.6222
lwrist -5.55027
lhand -21.6638 23.8333
lfingers 7.12502
lthumb 4.73341 53.7604
rfemur -4.10357 1.14215 13.0769
rtibia 25.5166
rfoot -16.2623 -2.36379
rtoes -4.72373
lfemur -6.11544 -8.07472 -5.54394
ltibia 25.0453
lfoot -2.64511 1.53641
ltoes 3.25367
463
root -5.37353 17.9167 9.56125 -181.941 1.52917 178.034
lowerback 12.9874 1.30737 0.450623
upperback 0.859455 1.95388 0.331944
thorax -6.37682 1.0026 -0.266933
lowerneck -19.7906 -1.57805 -11.6683
upperneck 34.9769 -2.72569 5.56124
head 15.9882 -2.81447 3.6792
rclavicle -5.06901e-015 -1.98785e-014
rhumerus -32.8752 -15.4143 -73.833
rradius 33.9957
rwrist 6.57525
rhand -15.8331 10.2912
rfingers 7.12502
rthumb 10.3612 -19.4335
lclavicle -5.06901e-015 -1.98785e-014
lhumerus -33.9382 10.1168 81.8802
lradius 32.5632
lwrist -5.50708
lhand -21.7329 23.8237
lfingers 7.12502
lthumb 4.66669 53.7523
rfemur -3.90446 1.24649 12.649
rtibia 25.2492
rfoot -16.1512 -2.41317
rtoes -5.20427
lfemur -5.69442 -8.45999 -5.12465
ltibia 24.3231
lfoot -0.986656 2.37837
ltoes 1.10288
464
root -5.4646 17.9097 9.55585 -182.025 1.65386 178.014
lowerback 13.0135 1.33453 0.366954
upperback 0.865164 1.98073 0.365526
thorax -6.38925 1.01877 -0.189964
lowerneck -19.8058 -1.569 -11.901
upperneck 35.0208 -2.71208 5.77125
head 16.0191 -2.81651 3.81622
rclavicle 4.07509e-015 -6.36111e-015
rhumerus -32.8185 -15.1861 -73.8281
rradius 33.7557
rwrist 6.54368
rhand -15.1198 8.94603
rfingers 7.12502
rthumb 11.0492 -20.7431
lclavicle 4.07509e-015 -6.36111e-015
lhumerus -33.8772 10.233 81.9
lradius 32.4536
lwrist -5.56965
lhand -21.7958 23.8071
lfingers 7.12502
lthumb 4.60591 53.737
rfemur -3.74723 1.38499 12.3017
rtibia 25.0573
rfoot -16.0321 -2.40201
rtoes -5.17327
lfemur -5.21611 -8.80161 -4.61896
ltibia 23.5879
lfoot 0.540535 3.05454
ltoes 1.06163
465
root -5.55635 17.9034 9.54915 -182.064 1.73572 178.171
lowerback 12.9749 1.31847 0.421695
upperback 0.852342 1.97287 0.459904
thorax -6.38295 1.01448 -0.119123
lowerneck -19.8088 -1.54148 -11.9093
upperneck 35.0562 -2.67694 5.76717
head 16.0327 -2.80915 3.82265
rclavicle -6.90777e-015 1.78906e-014
rhumerus -32.8483 -15.083 -73.7441
rradius 33.6293
rwrist 6.78177
rhand -14.6698 8.27411
rfingers 7.12502
rthumb 11.4832 -21.3914
lclavicle -6.90777e-015 1.78906e-014
lhumerus -33.9651 10.2247 81.9614
lradius 32.5322
lwrist -5.50808
lhand -21.587 23.9295
lfingers 7.12502
lthumb 4.80753 53.855
rfemur -3.67334 1.42659 12.152
rtibia 24.9637
rfoot -15.9321 -2.39732
rtoes -5.40214
lfemur -4.77711 -9.11912 -3.92486
ltibia 22.8345
lfoot 1.95925 3.46139
ltoes 1.67888
466
root -5.64678 17.893 9.54382 -182.102 1.80251 178.195
lowerback 12.9805 1.33059 0.313837
upperback 0.825342 1.97344 0.487455
thorax -6.41933 1.01723 -0.0299411
lowerneck -19.9258 -1.54271 -11.7345
upperneck 35.1946 -2.69748 5.61174
head 16.1269 -2.82698 3.72156
rclavicle -1.81888e-014 -2.26615e-014
rhumerus -32.9215 -15.0246 -73.7113
rradius 33.5544
rwrist 6.88712
rhand -14.6859 8.16558
rfingers 7.12502
rthumb 11.4677 -21.5008
lclavicle -1.81888e-014 -2.26615e-014
lhumerus -34.0946 10.0938 81.9911
lradius 32.7241
lwrist -5.42981
lhand -21.2662 24.186
lfingers 7.12502
lthumb 5.11727 54.1042
rfemur -3.64505 1.46926 11.8686
rtibia 24.9268
rfoot -15.8665 -2.40871
rtoes -6.24488
lfemur -4.3437 -9.36725 -3.39218
ltibia 22.0921
lfoot 3.38379 3.66381
ltoes 2.32145
467
root -5.74034 17.8766 9.53617 -182.203 1.90363 178.155
lowerback 12.9321 1.35921 0.187911
upperback 0.874245 1.99401 0.477154
thorax -6.34419 1.03205 0.0284799
lowerneck -19.9492 -1.58276 -11.6841
upperneck 35.1838 -2.77032 5.60354
head 16.1352 -2.84989 3.69488
rclavicle -1.50579e-014 -2.34566e-014
rhumerus -32.8781 -15.1862 -73.6364
rradius 33.3752
rwrist 7.1227
rhand -14.5588 8.1553
rfingers 7.12502
rthumb 11.5902 -21.5042
lclavicle -1.50579e-014 -2.34566e-014
lhumerus -34.0058 10.0365 82.0141
lradius 32.7198
lwrist -5.42119
lhand -21.1774 24.2268
lfingers 7.12502
lthumb 5.20305 54.1429
rfemur -3.57644 1.57334 11.4985
rtibia 24.9697
rfoot -15.8465 -2.38694
rtoes -6.50885
lfemur -3.80607 -9.58452 -2.95752
ltibia 21.3189
lfoot 4.80383 3.69664
ltoes 4.76866
468
root -5.83779 17.863 9.5251 -182.303 1.97469 178.112
lowerback 12.8788 1.36305 0.0490678
upperback 0.910076 1.9809 0.49011
thorax -6.28151 1.0306 0.124727
lowerneck -19.925 -1.56135 -11.5727
upperneck 35.0849 -2.72392 5.51049
head 16.0707 -2.81905 3.64139
rclavicle -1.87355e-014 -6.75868e-015
rhumerus -32.8507 -15.2131 -73.5618
rradius 33.2146
rwrist 7.33726
rhand -14.4648 8.26267
rfingers 7.12502
rthumb 11.6809 -21.3917
lclavicle -1.87355e-014 -6.75868e-015
lhumerus -33.9929 10.0585 82.0336
lradius 32.7336
lwrist -5.51172
lhand -21.3647 24.0175
lfingers 7.12502
lthumb 5.02217 53.938
rfemur -3.5371 1.55217 11.1009
rtibia 25.0942
rfoot -15.6214 -2.58565
rtoes -6.40816
lfemur -3.238 -9.88548 -2.58833
ltibia 20.5393
lfoot 5.82426 3.6619
ltoes 6.65631
469
root -5.93319 17.8525 9.51765 -182.418 2.03556 178.097
lowerback 12.9776 1.35118 -0.14351
upperback 0.891291 1.93922 0.517545
thorax -6.36366 1.01564 0.266802
lowerneck -19.9612 -1.47612 -11.407
upperneck 35.0723 -2.61866 5.44515
head 16.0551 -2.75998 3.60367
rclavicle -1.75427e-014 1.11319e-014
rhumerus -32.8552 -15.0898 -73.555
rradius 33.0534
rwrist 7.39195
rhand -14.5192 8.30578
rfingers 7.12502
rthumb 11.6284 -21.3516
lclavicle -1.75427e-014 1.11319e-014
lhumerus -34.1656 9.92423 82.011
lradius 32.9509
lwrist -5.40247
lhand -21.5433 23.6022
lfingers 7.12502
lthumb 4.84978 53.5267
rfemur -3.50643 1.67764 10.7662
rtibia 25.2478
rfoot -15.1364 -3.12629
rtoes -5.75752
lfemur -2.6598 -10.271 -2.22454
ltibia 19.7805
lfoot 6.51315 3.50605
ltoes 6.57825
470
root -6.03157 17.8356 9.51263 -182.521 2.0644 178.175
lowerback 13.0153 1.33215 -0.210647
upperback 0.936506 1.91149 0.569204
thorax -6.34044 1.00637 0.363691
lowerneck -20.0861 -1.49947 -11.4884
upperneck 35.0461 -2.65965 5.63838
head 16.0808 -2.75279 3.69688
rclavicle -2.60408e-014 -1.70955e-014
rhumerus -32.715 -14.8867 -73.5853
rradius 32.8954
rwrist 7.26331
rhand -14.77 8.19673
rfingers 7.12502
rthumb 11.3866 -21.4741
lclavicle -2.60408e-014 -1.70955e-014
lhumerus -34.1216 9.7398 82.0817
lradius 33.0716
lwrist -5.25716
lhand -21.5875 23.5657
lfingers 7.12502
lthumb 4.80707 53.4911
rfemur -3.4636 1.80718 10.5327
rtibia 25.3876
rfoot -14.9517 -3.48674
rtoes -6.33693
lfemur -2.12313 -10.6323 -1.76735
ltibia 19.0679
lfoot 6.93675 3.09612
ltoes 5.65077
471
root -6.13503 17.8142 9.50046 -182.608 2.09383 178.296
lowerback 12.9606 1.32103 -0.181364
upperback 0.966541 1.90591 0.618588
thorax -6.27881 1.00442 0.401962
lowerneck -20.199 -1.5522 -11.6388
upperneck 35.1077 -2.78174 5.9156
head 16.1603 -2.78806 3.825
rclavicle 4.47266e-015 -2.38542e-015
rhumerus -32.6758 -14.8224 -73.544
rradius 32.8429
rwrist 7.15614
rhand -14.8541 8.01383
rfingers 7.12502
rthumb 11.3054 -21.6615
lclavicle 4.47266e-015 -2.38542e-015
lhumerus -34.0913 9.55073 82.1784
lradius 33.1369
lwrist -5.14407
lhand -21.6604 23.408
lfingers 7.12502
lthumb 4.73665 53.335
rfemur -3.423 1.97575 10.3243
rtibia 25.5311
rfoot -15.0233 -3.66208
rtoes -7.11336
lfemur -1.58851 -10.9489 -1.29698
ltibia 18.4185
lfoot 7.18558 2.66791
ltoes 5.21081
472
root -6.24409 17.7962 9.48588 -182.667 2.07006 178.4
lowerback 12.8727 1.26689 -0.146383
upperback 0.950113 1.84005 0.661674
thorax -6.24685 0.971189 0.441536
lowerneck -20.1974 -1.58244 -11.6302
upperneck 35.1384 -2.90215 6.05
head 16.1917 -2.8244 3.8598
rclavicle -2.17669e-014 -1.98785e-015
rhumerus -32.7093 -14.998 -73.4005
rradius 32.7153
rwrist 7.36215
rhand -14.9153 8.13796
rfingers 7.12502
rthumb 11.2464 -21.5406
lclavicle -2.17669e-014 -1.98785e-015
lhumerus -34.2144 9.3932 82.2108
lradius 33.2815
lwrist -4.99767
lhand -21.5947 22.9971
lfingers 7.12502
lthumb 4.80014 52.9227
rfemur -3.42626 2.03962 10.0677
rtibia 25.6778
rfoot -15.084 -3.75762
rtoes -7.68942
lfemur -1.1396 -11.3484 -0.904268
ltibia 17.8483
lfoot 7.52824 2.2583
ltoes 4.4327
